<?xml version="1.0" encoding="UTF-8"?>
<svg width="16px" height="14px" viewBox="0 0 16 14" version="1.1" xmlns="http://www.w3.org/2000/svg" xmlns:xlink="http://www.w3.org/1999/xlink">
    <!-- Generator: Sketch 54.1 (76490) - https://sketchapp.com -->
    <title>volume</title>
    <desc>Created with Sketch.</desc>
    <defs>
        <polygon id="path-1" points="0.0307 0.000119748279 5.0307 0.000119748279 5.0307 14 0.0307 14"></polygon>
    </defs>
    <g id="volume" stroke="none" stroke-width="1" fill="none" fill-rule="evenodd">
        <g id="Group-3" transform="translate(3.000000, 0.000000)">
            <mask id="mask-2" fill="white">
                <use xlink:href="#path-1"></use>
            </mask>
            <g id="Clip-2"></g>
            <path d="M5.0307,13.7371 C5.0307,13.9941 4.8867,14.0761 4.7107,13.9231 L0.3537,9.5741 C0.1767,9.4211 0.0307,9.0871 0.0307,8.8311 L0.0307,5.1231 C0.0307,4.8681 0.1767,4.5341 0.3537,4.3801 L4.7107,0.0761 C4.8867,-0.0759 5.0307,0.0071 5.0307,0.2631 L5.0307,13.7371 Z" id="Fill-1" fill="#FFFFFF" mask="url(#mask-2)"></path>
        </g>
        <path d="M6.031,9 C6.031,9.55 5.492,10 4.832,10 L1.199,10 C0.539,10 0,9.55 0,9 L0,5 C0,4.45 0.539,4 1.199,4 L4.832,4 C5.492,4 6.031,4.45 6.031,5 L6.031,9 Z" id="Fill-4" fill="#FFFFFF"></path>
        <path d="M13.7375,12.6784 C13.6235,12.6784 13.5085,12.6394 13.4145,12.5594 C13.2035,12.3814 13.1775,12.0664 13.3555,11.8554 C15.8085,8.9594 15.8085,4.9154 13.3555,2.0204 C13.1775,1.8094 13.2035,1.4944 13.4145,1.3154 C13.6255,1.1384 13.9395,1.1634 14.1195,1.3734 C16.8935,4.6494 16.8935,9.2254 14.1195,12.5014 C14.0195,12.6184 13.8795,12.6784 13.7375,12.6784" id="Fill-6" fill="#FFFFFF"></path>
        <path d="M10.4584,10.7105 C10.3414,10.7105 10.2234,10.6695 10.1284,10.5865 C9.9214,10.4035 9.9004,10.0875 10.0834,9.8805 C11.5744,8.1845 11.5744,5.8155 10.0834,4.1195 C9.9004,3.9125 9.9214,3.5965 10.1284,3.4135 C10.3354,3.2315 10.6504,3.2525 10.8334,3.4595 C12.6674,5.5435 12.6674,8.4565 10.8334,10.5405 C10.7354,10.6525 10.5974,10.7105 10.4584,10.7105" id="Fill-8" fill="#FFFFFF"></path>
    </g>
</svg>